<svg xmlns="http://www.w3.org/2000/svg" xml:space="preserve" viewBox="256 0 1024 1024"><path fill="#47704c" d="M951 1025H1V1h1536v1024zM420.498 513.88c.162-.048.323-.095 1.226-.471.747-.759 1.495-1.517 2.428-2.43.12-.341.24-.682.846-1.538 11.633-14.65 23.267-29.3 35.343-44.406a13 13 0 0 1 .841-.737c2.242-2.942 4.483-5.883 7.276-9.343 1.499-2.28 2.998-4.562 5.001-7.14l31.553-40.196c-4.605-.223-7.645-.492-10.685-.498-16.267-.032-32.534.035-48.801-.024-2.603-.01-5.205-.483-7.199-1.163l17.56-12.539c-8.307-4.221-16.04-8.151-23.585-12.376-.738-.323-1.475-.647-3.428-1.938-.394-.336-.788-.672-1.694-1.382-4.383-2.575-8.765-5.15-13.154-7.743 0 0-.005-.024-.535-.423-8.301-4.927-16.541-9.964-24.964-14.674-1.412-.79-3.992-.856-5.394-.089-15.187 8.307-30.25 16.84-45.34 25.326-24.235 13.628-48.463 27.266-73.308 41.183-.568 1.296-1.622 2.59-1.629 3.89-.073 14.623.08 29.247.046 43.871-.051 22.604-.252 45.208-.262 67.812-.002 4.241.592 8.483.826 13.003a9.7 9.7 0 0 1-.356 2l.119 1.204c.743-.398 1.485-.797 2.23-1.844 10.136-10.691 20.272-21.382 31.072-32.535.491-2.186 1.4-4.37 1.411-6.559.123-24.326.106-48.654.14-73.037 0 0 .049-.03.57-.214.451-.312.903-.624 1.882-1.382 25.113-14.188 50.36-28.149 75.249-42.718 6.616-3.873 12.273-6.877 18.852-.79.11.102.31.107.95.656.802.457 1.604.913 2.945 1.76 1.367.783 2.733 1.566 4.621 2.663 3.73 2.181 7.814 3.933 11.094 6.655 3.762 3.123 10.31 3.781 10.928 10.15.21-.162.42-.324.788-.89.381-.432.763-.864 1.76-.91 1.86.94 3.653 2.063 5.595 2.785 7.164 2.666 14.377 5.199 22.722 8.195a16788 16788 0 0 1-22.035 23.962s.01.007-.434.215a1.48 1.48 0 0 0-.563.781s.017.007-.484.303c-.108.551-.215 1.103-.899 1.991-1.573 1.552-3.146 3.104-5.294 4.989-3.02 3.266-6.14 6.446-9.038 9.817-5.452 6.342-10.775 12.794-16.721 19.513-8.892 10.195-17.785 20.39-27.162 30.993a6689 6689 0 0 1-20.738 23.783c-5.163 5.913-10.327 11.825-15.698 18.069 0 0-.163.355-.552.629-.244.212-.426.469-1.073 1.167-1.866 2.173-3.732 4.345-5.973 6.801-.232.217-.416.47-1.093 1.133l-15 16.655c7.159 4.053 13.33 7.547 19.656 11.345 2.756 1.641 5.504 3.296 8.27 4.921 14.924 8.767 29.818 17.585 44.835 26.19 1.364.781 3.885.848 5.256.11 10.396-5.6 20.66-11.444 30.926-17.283 29.367-16.702 58.716-33.438 88.764-50.38.672-2.05 1.91-4.095 1.927-6.15.15-18.776.074-37.555.091-56.333.023-25.076.071-50.152-.407-75.24-3.86 5.33-7.773 10.626-11.572 16.002-6.698 9.48-13.326 19.01-20.558 28.968-.586 1.67-1.674 3.337-1.679 5.007-.052 18.82.093 37.64.117 56.46.01 7.585-.511 14.993-8.917 18.533 0 0 .058.01-.34.356-.22.274-.44.549-1.008 1.174-25.002 14.12-49.975 28.293-75.075 42.237-1.63.906-4.621.77-6.333-.122-6.765-3.522-13.272-7.538-19.652-12.066.406-.866.811-1.731 1.349-2.69 0 0 .117-.109.309-.3.114-.136.22-.278.729-.998.359-.844.718-1.688 1.068-2.565 0 0-.004.023.633-.03.36-.223.721-.447 1.606-.978 3.914-4.993 7.827-9.985 11.77-14.984 0 0-.007-.03.61-.2 1.026-1.075 2.053-2.15 3.634-3.556 3.197-3.888 6.395-7.776 10.147-11.97 5.823-6.964 11.725-13.863 17.4-20.944 1.15-1.434 1.439-3.556 2.141-5.376 0 0 .02-.011.405-.267.236-.204.427-.444.573-.763 0 0 .04-.012.542-.073m-109.855 5.386c-.267.199-.475.447-.945 1.094-.218.231-.446.45-.995 1.011-.212.23-.433.45-1.188 1.07-2.386 2.552-4.772 5.105-7.67 8.1l-30.461 30.998c10.014 5.81 18.807 10.75 27.41 16 2.711 1.653 4.442 1.275 6.399-.913 10.72-11.987 21.493-23.927 32.758-36.207.324-.244.649-.488 1.503-1.094a25530 25530 0 0 0 28.123-29.545c.153-.27.306-.538.811-1.005 2.58-2.885 5.158-5.77 8.547-9.287.246-.238.492-.476.788-.73 0 0 .056-.085.741-.754.21-.241.42-.482.694-.71 0 0 .134-.209.847-.847.22-.232.44-.463.704-.71 0 0 .05-.078.513-.524.146-.157.29-.314.48-.479 0 0 .038-.075.552-.564.16-.174.321-.347.527-.53 0 0 .035-.08.244-.637.06-.189.12-.378.44-.765.224-.249.359-.54.917-1.271 1.178-1.213 2.356-2.427 4.094-4.092 2.582-3.367-.717-2.759-2.085-2.754-13.096.047-26.192.233-39.74.793-1.55 1.731-3.1 3.463-5.193 5.555-2.126 2.292-4.172 4.666-6.394 6.861a974 974 0 0 1-19.691 18.938 59 59 0 0 1-1.658 2.1c-.215.218-.433.434-1.072.898m606.321-67.272s.09-.014-.299.72c-.25 6.77-.455 13.541-.764 20.308-.336 7.38-.768 14.757-1.743 21.803q-4.317-5.157-8.63-10.317c-8.51-10.187-17.017-20.376-25.827-31.123-4.148-.306-8.297-.613-13.171-.798-.48.101-.961.202-1.545-.06l-.688-.337c-.086.311-.245.622-.246.934-.057 18.979.043 37.96-.199 56.936-.154 12.124.327 12.624 12.295 12.118 3.821-.162 4.883-1.507 4.848-5.014-.1-10.33-.073-20.663.066-30.993.028-2.089.765-4.169 1.74-5.9 10.76 12.606 21.592 25.154 32.226 37.867 2.154 2.575 4.364 3.525 7.68 3.37 3.056-.144 6.155.62 9.536.123.182-.637.522-1.272.524-1.91.076-21.553.184-43.107.052-64.66-.011-1.784-1.682-3.558-2.747-5.665-1.297 1.384-1.959 2.091-3.328 3.084-1.76-.06-3.52-.118-5.904-.535-1.288.046-2.575.093-3.876.05m-265.929-2.026s.088.055-.4.38c-.228 1.091-.651 2.182-.656 3.275-.086 17.908-.214 35.816-.102 53.724.031 5.043.8 10.082 1.545 14.621l15.44-.684c0-3.584-.84-7.328.241-10.392 1.05-2.975 3.912-5.439 6.422-7.615.34-.295 3.462 2.2 4.948 3.74 2.647 2.74 5.181 5.622 7.482 8.658 2.925 3.86 5.852 6.86 11.476 6.008 4.337-.657 8.854-.131 14.48-.131-9.304-10.302-17.525-19.404-25.333-29.235 6.116-6.548 12.232-13.095 18.703-19.796l2.948-2.573c-2.189 0-3.456.009-4.723 0-16.484-.123-16.45-.093-27.294 12.284-2.315 2.642-4.98 4.978-7.483 7.455l-1.816-.666c0-4.542-.067-9.084.014-13.625.151-8.446.389-16.89-.25-25.655-5.233.105-10.464.21-15.642.227m183.051 57.953c.184.264.369.528 1.11.325 1.44.968 3.374 1.63 4.21 2.973 1.383 2.221 1.798 5.036 3.13 7.301.79 1.342 2.484 2.861 3.894 2.993 4.203.394 8.466.142 13.206.142-.713-1.99-1.086-3.25-1.605-4.446-7.944-18.316-15.886-36.632-23.874-54.93-4.5-10.307-4.54-10.361-16.031-9.587-1.259.085-3.036 1.273-3.542 2.408-9.35 20.967-18.548 42.002-27.744 63.037-.36.82-.385 1.787-.572 2.71 14.575 1.84 14.575 1.84 19.608-10.763.123-.31.113-.763.332-.927 1.7-1.28 3.377-3.449 5.183-3.573 6.3-.433 12.649-.23 18.975-.07 1.098.028 2.172 1.016 3.72 2.407m386.887-2.836-6.21-8.51c1.717-1.079 2.817-1.78 3.928-2.467 8.253-5.103 12.027-13.682 10.21-24.154-1.576-9.089-7.516-15.245-16.226-16.025-12.625-1.13-25.426-.29-38.456-.29v67.577h15.199c0-5.652-.192-10.806.1-15.933.108-1.911 1.222-5.278 2.091-5.348 2.55-.206 5.318.632 7.772 1.627 1.202.488 1.92 2.21 2.815 3.406 3.588 4.794 7.091 9.653 10.788 14.362.83 1.058 2.287 2.226 3.501 2.28 5.53.243 11.077.106 17.939.106-3.482-4.002-5.955-6.845-8.948-10.149-1.4-1.956-2.8-3.913-4.503-6.482M635.78 464.092s.073.008.499-.96c.2-2.062.401-4.125.648-7.034.1-1.403.2-2.806.437-4.807-1.205-.76-2.405-2.175-3.616-2.184-18.741-.147-37.484-.168-56.224-.009-1.438.013-4.09 1.594-4.09 2.445.004 4.491.677 8.982 1.89 13.026 11.144.005 22.288.01 33.67.873.49 1.063.982 2.127 2.15 3.442-.563 1.362-.82 2.99-1.736 4.048-10.626 12.29-21.244 24.59-32.115 36.661-3.282 3.644-3.927 7.318-2.63 11.904 6.64 0 13.082-.053 19.521.01 14.083.139 28.165.336 42.756-.112.633-3.04 1.62-6.06 1.794-9.125.153-2.697-1.14-4.486-4.545-4.393-8.596.236-17.203.02-25.802.174-2.248.04-4.484.766-7.51 1.068.137-1.414-.26-3.273.493-4.172 6.83-8.163 13.935-16.094 20.801-24.228 4.042-4.788 7.796-9.821 12.661-15.674.324-.314.648-.628.948-.953m435.33 35.117c-1.223 7.15-5.776 9.618-12.673 10.84-7.578 1.343-16.411-1.406-17.582-8.87-1.443-9.2-.62-18.758-.733-28.162-.002-.155.528-.316.825-1.484.006-4.978.244-9.973-.122-14.923-.112-1.522-1.76-4.056-2.904-4.174-4.218-.432-8.519-.045-13.334.26-.177.085-.354.17-.977.552-.235 9.367-.691 18.736-.632 28.101.045 7.05.752 14.095 1.657 21.67 2.474 10.407 8.933 16.522 19.446 18.752 22.965 4.872 37.651-2.609 44.21-23.346.21-.8.602-1.6.605-2.4.05-13.312.096-26.625-.003-39.936-.01-1.37-.952-2.735-2.265-3.755-4.693-.118-9.387-.235-14.608.318-.343 2.082-.97 4.162-.982 6.246-.072 13.222-.008 26.445.072 40.31m-84.565-5.151c1.557.593 3.121 1.169 4.67 1.785 1.908.76 5.28 1.337 5.434 2.375.5 3.387 1.653 7.454-2.477 9.866-7.639 4.46-21.717 3.402-29.032-2.185-7.35-5.613-10.384-16.166-7.559-26.285 3.413-12.224 15.96-19.223 29.808-16.11 6.993 1.572 13.778 4.072 20.826 6.203 0-2.384-.451-5.129.1-7.656.974-4.468-1.17-6.688-4.88-7.852-4.586-1.439-9.203-3.026-13.928-3.726-26.739-3.961-51.738 11.673-48.363 41.507.76 6.72 2.902 14.807 7.402 19.192 5.462 5.323 14.017 7.577 21.4 10.78 3.262 1.416 6.93 1.9 8.711 2.363 5.602-2.144 11.082-.97 15.693-2.74 5.256-2.02 10.397-4.338 16.177-6.553.79-1.097 2.24-2.18 2.266-3.294.2-8.78.3-17.572-.053-26.341-.05-1.243-2.613-3.237-4.17-3.402-4.09-.436-8.268 0-12.41-.009-11.743-.023-11.743-.042-9.615 12.082m-236.595 6.142c-4.893-11.658-10.499-23.08-14.455-35.049-3.226-9.76-7.946-15.039-18.714-12.51-1.031.242-2.168.032-3.575.032 1.074 2.263 2.034 4.165 2.892 6.112 8.647 19.637 17.333 39.257 25.847 58.951 1.156 2.674 2.453 3.752 5.48 3.75 13.01-.007 13.01.103 18.215-11.708.336-.761.665-1.526 1.001-2.287l24.191-54.72c-5.43 0-10.34-.078-15.243.083-.74.024-1.77 1.02-2.112 1.808-2.647 6.085-5.153 12.23-7.712 18.354-3.782 9.05-7.546 18.108-11.378 27.137-.927 2.185-2.054 4.452-4.437.047m401.948-13.063c-3.674-8.377-7.98-16.547-10.828-25.197-2.414-7.33-6.025-10.414-13.883-9.339-3.232.443-4.933 1.115-6.2 4.105-5.384 12.71-10.959 25.34-16.5 37.983-3.911 8.925-7.88 17.824-11.979 27.09 4.908 0 9.218.238 13.473-.137 1.396-.123 3.659-1.704 3.815-2.852 1.77-12.988 10.401-14.814 21.156-13.464.164.021.333.004.5.003 12.756-.03 12.756-.03 17.651 11.765.382.919.598 1.994 1.225 2.7.682.768 1.735 1.647 2.658 1.684 4.41.174 8.83.078 14.074.078-5.256-11.886-10.082-22.798-15.162-34.419m136.653-32.822-43.114-2.264v15.729c-.003 16.322-.003 32.645-.01 48.967-.002 2.543-.347 5.193 3.585 5.075 10.316-.31 20.658-.163 30.946-.858 9.596-.649 18.244-4.337 24.62-11.738 15.82-18.363 7.896-46.241-16.027-54.911"/><path fill="#192e45" d="M265.098 420.997c24.232-13.635 48.46-27.273 72.695-40.901 15.09-8.486 30.153-17.019 45.34-25.326 1.402-.767 3.982-.7 5.394.089 8.423 4.71 16.663 9.747 25.098 15.186 1.162 2.704 1.958 5.048 3.27 7.055 2.218 3.395 4.86 6.512 7.084 9.903.438.667.054 2.822-.399 2.976-4.115 1.403-8.601 4.037-12.452 3.35-5.64-1.005-10.742-.671-16.025.808-.158-.05-.358-.055-.468-.157-6.579-6.087-12.236-3.083-18.852.79-24.89 14.57-50.136 28.53-75.783 43.015-.979.621-1.424.945-1.87 1.27 0 0-.048.03-.191.024s-.398-.127-.66.218c-.604 2.434-1.23 4.523-1.24 6.614-.104 23.827-.114 47.655-.106 71.646.044.165.135.491.17.49.034-.002.051.064-.294.116-1.921 1.228-3.682 2.223-5.044 3.61-8.523 8.666-16.956 17.42-25.48 25.685-.109-2.787-.194-5.114-.196-7.44-.044-39.407-.078-78.814-.094-118.423.02-.202.103-.598.103-.598"/><path fill="#14273c" d="M367.36 580.27c6.602 3.832 13.11 7.848 19.874 11.37 1.712.891 4.702 1.028 6.333.122 25.1-13.944 50.073-28.117 75.495-42.544.608-.609.797-.91.986-1.212 0 0-.058-.01.326-.003 3.389-1.706 6.394-3.42 9.644-5.27.511-7.34.778-14.546 1.354-21.847 1.674-.978 3.039-1.86 4.443-2.767 8.91 4.706 15.525 1.404 20.278-6.576 1.978 1.84 3.364 3.129 4.786 4.89.056 11.585.15 22.701.054 33.815-.028 3.278-.594 6.55-.855 9.765.06-.06.192.045-.174.11-2.027.82-3.76 1.444-5.339 2.343-37.049 21.084-74.105 42.155-111.078 63.373-3.699 2.122-6.66 1.89-10.15-.226a3806 3806 0 0 0-43.761-26.108c-2.064-1.215-4.52-1.763-6.795-2.619l-19.5-11.041c5.395-5.99 10.197-11.322 15.33-16.785.331-.13.45-.016.344.31-1.259 2.228-2.41 4.13-4.533 7.636 5.09 0 8.86-.488 12.444.116 5.269.888 11.059 1.5 15.416 4.192 4.316 2.666 8.334 2.773 12.706 2.413.832-.068 1.49-2.256 2.263-3.458.036.008.108 0 .108 0"/><path fill="#192e45" d="m510.843 515.96-4.75-4.417c-4.753 7.98-11.367 11.282-20.278 6.576-1.404.907-2.77 1.789-4.463 2.3-.373-17.05-.417-33.73-.41-50.818.068-.958.085-1.507.102-2.055 6.657-9.509 13.285-19.039 19.983-28.52a397 397 0 0 1 11.74-15.81c.038.449-.162.63-.647 1.1-.45 2.655-.877 4.942-.89 7.232-.164 28.138-.267 56.275-.387 84.413"/><path fill="#8dc9ee" d="m434.011 449.027 22.027-23.983c-8.345-2.996-15.558-5.53-22.722-8.195-1.942-.722-3.734-1.845-5.671-3.173 1.12-1.452 2.315-2.515 3.465-3.635-.047-.057-.16.036.162-.007.865-.356 1.407-.668 2.245-1.027 1.597-.915 2.9-1.783 4.202-2.652 2.602.26 5.204.733 7.807.742 16.267.059 32.534-.008 48.8.024 3.041.006 6.081.275 10.686.498-10.896 13.88-21.225 27.038-31.985 40.229-2.287 2.42-4.142 4.807-6.267 7.36-1.1.847-1.93 1.527-3.07 1.953-1.572-.596-2.846-.902-4.095-1.287-8.443-2.6-17.947-1.24-25.584-6.847"/><path fill="#102336" d="M636.882 456.944c-.2 2.063-.402 4.126-.804 6.655-.202.467-.273.505-.273.505-.324.313-.648.627-1.545 1.552-1.654 1.633-2.83 2.574-3.801 3.692-10.15 11.676-20.298 23.353-30.348 35.114-1.073 1.256-1.525 3.045-2.265 4.586 1.74.654 3.468 1.835 5.22 1.872 8.99.192 17.984.124 26.976.074 3.28-.019 5.999.238 5.955 4.65-.041 4.146-2.587 4.364-5.68 4.355-16.486-.05-32.972.01-49.458-.13-1.789-.016-4.954-.874-5.078-1.702-.302-2.01.618-4.31 1.433-6.337.468-1.163 1.697-2.018 2.573-3.02 11.6-13.278 23.224-26.537 34.764-39.868 1.163-1.344 1.822-3.125 3.2-5.56-3.032-.171-4.811-.352-6.59-.358-9.826-.032-19.654-.163-29.475.036-4.347.089-5.851-1.566-5.848-5.863.003-4.392 1.307-6.286 6.026-6.216 15.484.228 30.976.284 46.458.003 4.739-.086 7.662 1.151 8.56 5.96m68.044 15.731c-6.116 6.548-12.232 13.095-18.513 20.234 2.094 3.616 4.22 6.754 6.642 9.643 4.61 5.496 9.39 10.85 14.1 16.264-2.89 1.181-5.044.956-7.134 1.225-5.605.72-9.968-.858-13.297-5.687-2.442-3.545-5.484-6.675-8.24-10.004-2.586-3.122-5.241-3.598-8.534-.806-3.562 3.02-5.534 6.51-4.998 11.286.497 4.421-2.125 5.254-5.863 5.204-3.509-.048-6.203-.275-6.178-4.929.106-19.476.069-38.953-.04-58.43-.016-2.958 1.223-4.159 3.965-4.594 6.07-.965 8.141.748 8.17 7.096.043 9.322-.034 18.646.136 27.965.027 1.484 1.082 2.95 1.663 4.424 1.395-.637 3.11-.953 4.129-1.968 3.765-3.756 7.428-7.632 10.893-11.667 6.196-7.215 13.874-9.05 23.1-5.256"/><path fill="#407eb2" d="M423.966 511.133c-.747.759-1.495 1.517-2.737 2.346-.848-.024-1.094.106-1.234.462 0 0-.04.012-.258.131-.485.317-.658.578-.739.9l-.33.163c-2.428 2.498-4.839 4.645-6.592 7.237-2.395 3.542-4.511 3.137-7.814 1.078-3.835-2.392-8.179-4.013-12.4-5.729-3.699-1.504-7.533-2.678-12.233-4.321 5.04-5.951 9.218-10.671 13.145-15.591 2.956-3.703 5.59-7.661 8.366-11.506 5.376-6.407 10.7-12.86 16.151-19.201 2.898-3.371 6.018-6.551 9.302-9.628-.61 1.752-1.266 3.497-2.397 4.844-3.3 3.93-6.879 7.627-10.177 11.558-2.51 2.994-1.638 5.822 1.688 6.286 4.855.679 9.688 1.553 14.56 2.078 7.783.838 15.221 1.389 20.003-7.282 2.083-3.777 6.352-6.348 9.628-9.466-11.633 14.65-23.267 29.3-35.318 44.09-.879.393-1.34.645-1.803.896z"/><path fill="#68abdd" d="M460.12 465.263c-3.498 3.347-7.767 5.918-9.85 9.695-4.782 8.67-12.22 8.12-20.004 7.282-4.87-.525-9.704-1.4-14.559-2.078-3.326-.464-4.199-3.292-1.688-6.286 3.298-3.931 6.877-7.628 10.177-11.558 1.131-1.347 1.788-3.092 2.685-5.01 1.596-1.908 3.17-3.46 5.168-5.407.609-.894.792-1.393.974-1.892 0 0-.017-.007.136-.185.365-.414.599-.625.855-.811 0 0-.01-.007-.007.004 7.641 5.618 17.145 4.257 25.588 6.857 1.25.385 2.523.69 4.002 1.578-.788 2.744-1.792 4.943-2.797 7.141-.153.148-.306.295-.68.67"/><path fill="#315f8a" d="M313.88 516.048c6.4-6.234 12.828-12.44 19.184-18.718 2.222-2.195 4.268-4.57 6.877-6.926.047 1.111-.192 2.416-.863 3.436-1.383 2.098-2.998 4.044-4.883 6.537 2.202.824 3.526 1.447 4.918 1.82 5.96 1.593 11.653 3.392 15.143 9.241 1.488 2.494 3.824 2.657 6.284.45 1.05-.942 2.918-.975 4.414-1.421-9.167 9.619-18.333 19.238-27.69 28.772-.178-.46-.167-.832-.162-1.23-.005-.026-.058-.014.21-.172.412-.54.557-.92.977-1.482 2.54-2.824 1.698-5.046-1.252-5.864-8.95-2.483-16.092-7.73-22.794-14.085-.117-.123-.363-.358-.363-.358"/><path fill="#192e45" d="M335.441 540.743c-10.755 11.956-21.528 23.896-32.248 35.883-1.957 2.188-3.688 2.566-6.398.913-8.604-5.25-17.397-10.19-27.411-16 10.429-10.613 20.445-20.805 31.002-31.292.937-.314 1.334-.334 1.563-.05-4.322 4.928-8.475 9.552-12.902 14.48 4.636 3.15 8.959 5.395 12.38 8.6 3.513 3.292 6.145 7.523 9.609 11.908 5.254-5.457 11.543-10.467 15.344-18.082 3.103-2.521 5.87-4.954 8.706-7.214.16.402.255.629.355.854"/><path fill="#080c14" d="M1009.94 515.047c-5.192 2.189-10.333 4.507-15.589 6.526-4.61 1.772-10.09.597-15.693 2.741-1.781-.463-5.449-.947-8.712-2.363-7.382-3.203-15.937-5.457-21.4-10.78-4.5-4.385-6.641-12.472-7.401-19.192-3.375-29.834 21.624-45.468 48.363-41.507 4.725.7 9.342 2.287 13.927 3.726 3.711 1.164 5.855 3.384 4.88 7.852-.55 2.527-.099 5.272-.099 7.656-7.048-2.131-13.833-4.63-20.826-6.203-13.849-3.113-26.395 3.886-29.808 16.11-2.825 10.119.21 20.672 7.559 26.285 7.315 5.587 21.393 6.646 29.032 2.185 4.13-2.412 2.978-6.479 2.477-9.866-.154-1.038-3.526-1.614-5.435-2.375-1.548-.616-3.112-1.192-4.695-2.423.245-3.718.516-6.798.8-10.03h24.66c0 7.411.084 14.502-.043 21.59-.048 2.72-.579 5.432-.932 7.672-.049-7.64-.243-14.81.007-21.964.154-4.416-1.611-6.003-5.874-5.767-3.986.221-7.995.086-11.993.037-2.767-.034-4.935.386-5.06 3.921-.122 3.434 2.001 3.986 4.662 4.598 1.941.447 4.474 1.166 5.407 2.62 2.904 4.533.002 12.054-5.054 14.23-7.95 3.42-15.856 3.118-23.754-.258-10.439-4.462-16.192-16-13.968-28.154 2.15-11.76 11.183-19.53 22.857-20 8.65-.347 16.926.859 24.795 4.592.937.445 2.098.419 3.55.683.047-4.417 2.377-9.143-3.037-11.273-15.594-6.134-31.218-7.132-46.008 2.125-12.527 7.84-16.692 20.075-15.033 34.114 1.752 14.817 10.497 24.31 25.035 27.64 12.792 2.93 25.469 2.251 37.489-3.805 1.614-.813 3.387-1.31 5.072-1.697-.062.424-.11.589-.159.754"/><path fill="#1d3853" d="M438.023 406.145c-1.606 1.079-2.909 1.947-4.792 2.988-1.148.43-1.714.687-2.281.944 0 0 .113-.093-.196-.034-2.657-.405-5.244-.392-7.311-1.422-6.929-3.449-13.672-7.27-20.68-11.157-1.72-.625-3.246-1.042-4.772-1.459-.802-.456-1.604-.912-2.647-1.618 5.042-1.729 10.143-2.063 15.784-1.058 3.85.687 8.337-1.947 12.452-3.35.453-.154.837-2.309.4-2.976-2.225-3.39-4.867-6.508-7.085-9.903-1.312-2.007-2.108-4.35-3.005-6.855.131-.313.136-.289.265.033 4.598 2.813 9.068 5.304 13.537 7.795.394.336.788.672 1.814 1.536 1.29.92 1.95 1.313 2.608 1.705l23.773 12.081c-6.416 4.581-11.988 8.56-17.864 12.75"/><path fill="#407eb2" d="M365.266 510.123c-1.808.79-3.675.823-4.726 1.765-2.46 2.207-4.796 2.044-6.284-.45-3.49-5.85-9.184-7.648-15.143-9.242-1.392-.372-2.716-.995-4.918-1.82 1.885-2.492 3.5-4.438 4.883-6.536.671-1.02.91-2.325 1.135-3.616 1.339-1.847 2.888-3.579 4.767-5.416.476.02.635.13 1.155.481 2.323.426 4.293.731 6.265.737 10.808.034 21.616-.006 32.664.144.445.495.648.826.852 1.157-1.178 1.213-2.356 2.427-3.892 3.957-.572.564-.725.842-.82 1.152-.06.19-.12.378-.29.865-.112.297-.178.349-.178.349-.16.173-.321.346-.747.783a3 3 0 0 1-.331.308c-.145.158-.29.315-.671.72-.236.246-.323.291-.323.291-.22.232-.44.463-1.076.945-.418.25-.683.306-.683.306l.188.278c-.21.24-.42.482-.976 1.084-.346.361-.443.409-.443.409-.247.238-.493.476-1.343.875-4.151 2.39-8.248 4.157-8.296 9.324-.152.269-.305.538-.77 1.15"/><path fill="#254b70" d="M353.166 540.898c6.747-7.763 13.495-15.526 20.655-23.282-.588 1.613-1.408 3.372-2.625 4.79-2.363 2.75-2.569 4.762 1.093 6.571 3.255 1.608 6.101 4.31 9.489 5.325 6.022 1.803 9.265 10.005 17.104 7.306-3.197 3.889-6.395 7.777-9.966 11.667-1.542 1.243-2.71 2.484-3.877 3.725 0 0 .007.029-.324.179-3.607 3.05-6.29 3.834-8.866-.993-1.05-1.966-3.702-3.151-5.757-4.491-5.605-3.656-11.28-7.205-16.926-10.797"/><path fill="#315f8a" d="M399.16 541.455c-8.117 2.852-11.36-5.35-17.382-7.153-3.388-1.015-6.234-3.717-9.489-5.325-3.662-1.809-3.456-3.821-1.093-6.571 1.217-1.418 2.037-3.177 2.867-4.994 8.722-10.407 17.615-20.602 26.792-30.953-2.492 3.689-5.125 7.647-8.08 11.35-3.928 4.92-8.106 9.64-13.146 15.59 4.7 1.644 8.534 2.818 12.234 4.322 4.22 1.716 8.564 3.337 12.4 5.729 3.302 2.06 5.418 2.464 7.813-1.078 1.753-2.592 4.164-4.74 6.584-7.23-.384 1.66-.673 3.783-1.822 5.217-5.676 7.081-11.578 13.98-17.678 21.096"/><path fill="#080c14" d="M1024.057 452.952c.177-.085.354-.17 1.257-.29 4.99-.033 9.255-.033 14.135-.033 0 4.44-.183 8.213.062 11.958.175 2.672.927 5.306 1.421 7.956-.281.158-.811.32-.81.474.115 9.404-.709 18.961.734 28.163 1.17 7.463 10.004 10.212 17.582 8.87 6.897-1.223 11.45-3.691 12.924-11.526.387-3.503.599-6.32.645-9.139.207-12.467.366-24.936.542-37.404 4.693.118 9.387.235 14.58.644.585 15.715.67 31.14.753 46.564-6.149 19.973-20.835 27.454-43.8 22.582-10.513-2.23-16.972-8.345-19.636-19.54-.257-16.951-.323-33.115-.39-49.28m13.912 36.468c.003-9.157.015-18.313.007-27.47-.007-7.778-1.872-9.393-9.537-7.76-1.103.234-2.669 2.035-2.673 3.118-.061 13.978.035 27.96.274 41.936.163 9.522 4.858 16.808 13.783 19.336 7.155 2.026 15.167 2.606 22.583 1.815 16.517-1.761 23.578-10.461 23.642-27.03.043-10.987-.154-21.978.085-32.96.101-4.652-1.33-6.504-6.224-6.53-5.14-.029-6.078 2.323-6.01 6.738.179 11.817.187 23.64-.026 35.457-.131 7.307-5.571 13.662-12.658 15.538-8.296 2.197-17.524-.504-20.581-7.191-1.922-4.203-1.845-9.32-2.665-14.997"/><path fill="#1d3853" d="M352.918 541.145c5.895 3.345 11.57 6.894 17.174 10.55 2.055 1.34 4.708 2.525 5.757 4.491 2.577 4.827 5.259 4.044 8.852.996a287 287 0 0 1-11.784 14.862c-.867.355-1.376.678-1.884 1 0 0 .004-.023-.333-.025-.793-.01-1.25-.02-2.06-.117-5.491-2.627-10.536-5.377-15.79-7.642-4.76-2.051-9.749-3.572-14.784-5.491-.365-.368-.611-.527-.886-.64a7874 7874 0 0 1 15.738-17.984"/><path fill="#080c14" d="M750.079 500.568c2.255 4.036 3.382 1.77 4.31-.416 3.831-9.03 7.595-18.087 11.377-27.137 2.56-6.123 5.065-12.27 7.712-18.354.342-.787 1.372-1.784 2.112-1.808 4.902-.161 9.813-.083 15.243-.083l-24.19 54.72c-.337.761-.666 1.526-1.002 2.287-5.205 11.811-5.205 11.7-18.214 11.708-3.028.002-4.325-1.076-5.48-3.75-8.515-19.694-17.2-39.314-25.848-58.951-.858-1.947-1.818-3.849-2.892-6.112 1.407 0 2.544.21 3.575-.032 10.768-2.529 15.488 2.75 18.714 12.51 3.956 11.968 9.562 23.39 14.583 35.418m-10.812-21.37c-2.96-7.236-5.845-14.505-8.916-21.695-1.384-3.24-7.734-5.305-11.13-2.985-1.39.95-1.922 4.788-1.257 6.783 1.45 4.341 4.035 8.29 5.949 12.493 5.65 12.412 11.223 24.858 16.778 37.312 4.073 9.131 4.039 9.034 14.067 8.93 3.439-.036 5.438-1.167 6.849-4.437 7.968-18.476 16.152-36.86 24.2-55.301.74-1.697 1.038-3.587 1.548-5.411-9.912-2.263-11.267-1.642-14.949 6.422-.552 1.21-1.038 2.45-1.547 3.68-4.77 11.525-9.445 23.09-14.396 34.537-.814 1.88-2.837 3.239-4.302 4.838-1.39-1.576-3.237-2.94-4.089-4.768-3.02-6.48-5.7-13.117-8.805-20.398m-34.163-6.599c-9.403-3.718-17.081-1.883-23.277 5.332-3.465 4.035-7.128 7.911-10.893 11.667-1.018 1.015-2.734 1.331-4.13 1.968-.58-1.474-1.635-2.94-1.662-4.424-.17-9.32-.093-18.643-.135-27.965-.03-6.348-2.102-8.06-8.171-7.096-2.742.435-3.98 1.636-3.964 4.595.108 19.476.145 38.953.04 58.43-.026 4.653 2.668 4.88 6.177 4.928 3.738.05 6.36-.783 5.863-5.204-.536-4.775 1.436-8.266 4.998-11.286 3.293-2.792 5.948-2.316 8.533.806 2.757 3.33 5.799 6.46 8.241 10.004 3.329 4.829 7.692 6.406 13.297 5.687 2.09-.269 4.245-.044 7.134-1.225-4.71-5.413-9.49-10.768-14.1-16.264-2.422-2.889-4.548-6.027-6.848-9.278 8.18 8.875 16.4 17.977 25.705 28.279-5.627 0-10.144-.526-14.48.131-5.625.852-8.552-2.149-11.477-6.008-2.3-3.036-4.835-5.918-7.482-8.659-1.486-1.539-4.608-4.034-4.948-3.739-2.51 2.176-5.372 4.64-6.422 7.615-1.082 3.064-.24 6.808-.24 10.392-5.615.249-10.528.467-15.532.414-.13-24.071-.17-47.873-.208-71.675 0 0-.088-.055.351.054 5.64.067 10.842.025 16.043-.017-.201 8.445-.439 16.89-.59 25.336-.081 4.54-.014 9.083-.014 13.625l1.816.666c2.504-2.477 5.168-4.813 7.483-7.455 10.845-12.377 10.81-12.407 27.294-12.285 1.267.01 2.534.001 4.723.001-1.496 1.307-2.222 1.94-3.125 2.65m-68.199-16.078c-.921-4.386-3.844-5.623-8.583-5.537-15.482.28-30.974.225-46.458-.003-4.719-.07-6.023 1.824-6.026 6.216-.003 4.297 1.501 5.952 5.848 5.863 9.821-.199 19.649-.068 29.474-.036 1.78.006 3.559.187 6.59.357-1.377 2.436-2.036 4.217-3.2 5.56-11.54 13.332-23.162 26.59-34.763 39.868-.876 1.003-2.105 1.858-2.573 3.021-.815 2.028-1.735 4.328-1.433 6.337.124.828 3.29 1.686 5.078 1.702 16.486.14 32.972.08 49.459.13 3.092.009 5.638-.209 5.679-4.355.044-4.412-2.675-4.669-5.955-4.65-8.992.05-17.987.118-26.975-.074-1.753-.037-3.481-1.218-5.22-1.872.74-1.541 1.19-3.33 2.264-4.586 10.05-11.76 20.198-23.438 30.348-35.114.972-1.118 2.147-2.059 3.31-3.227-3.801 4.777-7.555 9.81-11.597 14.598-6.866 8.134-13.972 16.065-20.801 24.228-.752.9-.356 2.758.32 4.34 12.08.17 23.35.17 35.486.17l-.744 12.56c-14.083-.174-28.165-.371-42.248-.51-6.44-.063-12.88-.01-19.521-.01-1.297-4.586-.652-8.26 2.63-11.904 10.871-12.071 21.49-24.372 32.115-36.661.915-1.059 1.173-2.686 1.452-4.205-.286-.157-.337-.273-.044-.18 1.18-.58 2.067-1.254 2.955-1.928-1.07-.567-2.14-1.134-3.479-1.874-.691-.17-1.113-.166-1.536-.162-11.144-.005-22.288-.01-33.941-.247-.51-4.802-.51-9.37-.51-14.281 20.548 0 40.466-.023 60.384.077.85.005 1.693 1.145 2.539 1.756-.1 1.404-.2 2.807-.324 4.633m589.09 55.509 8.429 9.687c-6.862 0-12.409.137-17.939-.106-1.214-.054-2.67-1.222-3.501-2.28-3.697-4.709-7.2-9.568-10.788-14.362-.895-1.196-1.613-2.918-2.815-3.406-2.454-.995-5.223-1.833-7.772-1.627-.869.07-1.983 3.437-2.092 5.348-.29 5.127-.099 10.281-.099 15.933h-15.2V453.64c13.03 0 25.832-.84 38.457.29 8.71.78 14.65 6.936 16.226 16.025 1.817 10.472-1.957 19.051-10.21 24.154-1.11.686-2.211 1.388-3.928 2.467 2.186 2.996 4.198 5.753 6.295 8.89.085.38-.05.528-.339.36a179 179 0 0 1-5.33-5.659c-2.672-2.947-1.415-5.02 1.459-6.84 8.904-5.64 12.75-14.098 10.599-23.177-2.28-9.62-8.645-15.152-19.804-15.884-9.12-.599-18.312-.344-27.458-.04-1.406.046-3.907 2.379-3.924 3.68-.254 19.312-.21 38.63-.092 57.944.008 1.253.867 3.093 1.882 3.646 5.152 2.803 9.885-.16 9.938-6.005.024-2.664-.365-5.395.104-7.974.455-2.5 1.19-6.298 2.829-6.953 3.407-1.36 7.511-1.42 10.255 2.519 3.138 4.504 6.366 8.96 9.808 13.233 4.932 6.12 9.795 7.286 18.574 4.483-1.206-2.331-2.37-4.58-3.542-6.815-.009.015-.022.046-.022.046m-73.969-24.54c4.953 11.267 9.78 22.18 15.035 34.065-5.244 0-9.664.096-14.074-.078-.923-.037-1.976-.916-2.658-1.684-.627-.706-.843-1.781-1.225-2.7-4.895-11.795-4.895-11.796-17.651-11.765-.167 0-.336.018-.5-.003-10.755-1.35-19.386.476-21.156 13.464-.156 1.148-2.42 2.729-3.815 2.852-4.255.375-8.565.136-13.473.136 4.1-9.265 8.068-18.164 11.979-27.089 5.541-12.643 11.116-25.273 16.5-37.983 1.267-2.99 2.968-3.662 6.2-4.105 7.858-1.075 11.469 2.009 13.883 9.34 2.848 8.649 7.154 16.819 10.955 25.55m2.154 32.33h10.046c-.904-2.38-1.468-4.069-2.176-5.696-8.1-18.615-16.363-37.16-24.224-55.875-1.624-3.867-3.917-4.77-7.592-4.768-3.803.002-6.532.75-8.254 4.788-7.836 18.365-15.982 36.598-23.974 54.898-.833 1.907-1.39 3.934-2.093 5.955 10.02 2.374 11.62 1.603 14.968-6.822.492-1.238 1.08-2.455 1.403-3.737.89-3.539 3.222-4.645 6.672-4.587 6.99.12 13.985.133 20.973-.03 4.09-.095 6.33 1.6 7.823 5.447 1.397 3.6 3.72 6.84 6.428 10.426m-320.557-12.743c-1.085-.545-2.16-1.533-3.257-1.56-6.326-.16-12.676-.364-18.975.069-1.806.124-3.482 2.294-5.183 3.573-.219.164-.209.618-.332.927-5.033 12.603-5.033 12.603-19.608 10.763.187-.923.213-1.89.572-2.71 9.196-21.035 18.395-42.07 27.744-63.037.506-1.135 2.283-2.323 3.542-2.408 11.49-.774 11.532-.72 16.031 9.588 7.988 18.297 15.93 36.613 23.874 54.929.519 1.196.892 2.457 1.605 4.446-4.74 0-9.003.252-13.206-.142-1.41-.132-3.105-1.651-3.894-2.993-1.332-2.265-1.747-5.08-3.13-7.3-.836-1.345-2.77-2.006-4.141-2.737.399-.453.728-1.143 1.058-1.833zm-36.362-9.288-8.946 20.938c8.88 2.94 11.686 1.774 14.6-5.479.434-1.08.931-2.143 1.272-3.253 1.3-4.243 4.069-6.164 8.562-6.02 5.32.17 10.65.022 15.976.02 9.583-.006 9.895-.108 13.019 9.182 1.796 5.34 4.617 7.493 10.209 6.852 4.872-.558 5.333-.892 3.389-5.412-8.017-18.646-16.13-37.251-24.034-55.945-1.562-3.694-3.961-4.906-7.739-4.723-3.663.177-6.983-.271-8.903 4.351-5.418 13.05-11.366 25.878-17.405 39.489m491.647-43.31c23.567 8.506 31.49 36.384 15.671 54.747-6.376 7.401-15.024 11.089-24.62 11.738-10.288.695-20.63.547-30.946.858-3.932.118-3.587-2.532-3.586-5.075.008-16.322.008-32.645.011-48.967V452.05c14.413.757 28.763 1.51 43.47 2.428m21.215 24.172c-3.875-13.79-12.864-22.187-27.089-23.637-10.551-1.075-21.252-.679-31.885-.966-3.854-.104-4.152 2.424-4.147 5.33.032 18.48.076 36.961.007 55.441-.013 3.506 1.15 5.228 4.896 5.169 8.822-.14 17.704.572 26.46-.206 21.828-1.94 36.11-17.392 31.758-41.13M332.86 597.038c2.196.704 4.652 1.252 6.716 2.467a3806 3806 0 0 1 43.761 26.108c3.49 2.117 6.451 2.348 10.15.226 36.973-21.218 74.03-42.289 111.078-63.373 1.578-.899 3.312-1.524 5.337-2.114.365.161.394.616.394.616-29.356 16.722-58.705 33.458-88.072 50.16-10.266 5.839-20.53 11.684-30.926 17.282-1.371.739-3.892.672-5.256-.11-15.017-8.604-29.911-17.422-44.835-26.189a293 293 0 0 1-8.348-5.073m599.083-74.547c-3.08-.364-6.18-1.127-9.236-.984-3.315.156-5.525-.794-7.679-3.37-10.634-12.712-21.465-25.26-32.66-38.4-.713-.97-.992-1.408-.905-1.68 2.458 2.031 4.788 3.694 6.602 5.802 8.893 10.331 17.94 20.554 26.311 31.299 3.438 4.412 7.292 5.02 12.123 4.839 3.192-.121 4.455-1.488 4.449-4.587-.037-18.969-.061-37.938.018-56.907.021-4.942-3.318-4.46-6.513-4.51-3.31-.052-6.525-.195-6.37 4.646.298 9.3.614 18.607.596 27.91-.006 3.472-.923 6.942-1.456 9.948-.077-15.149-.122-29.833-.168-44.517 0 0-.09.014.217.196 1.602.163 2.897.145 4.193.127 1.76.059 3.52.118 6.018.221 4.23-.163 4.62 1.95 4.606 4.788-.102 21.726-.11 43.453-.146 65.18m-66.853-69.602c.48-.1.96-.202 2.237-.287 4.501.379 8.207.742 11.85 1.18-.06.076-.184.226-.643.246-1.624.01-2.79-.005-3.955-.008-7.512-.018-7.614.055-7.617 7.417-.008 17.648.117 35.296-.05 52.942-.042 4.534 1.92 5.648 6.023 5.672 4.098.023 6.19-1.042 6.077-5.6-.272-10.98-.297-21.967-.242-32.95.008-1.459 1.058-2.912 1.494-3.923-.152 11.731-.11 23.02-.211 34.306-.092 10.268 1.998 9.16-9.572 9.528-4.532.144-5.551-1.512-5.51-5.746.2-20.924.108-41.85.119-62.776"/><path fill="#5c6366" d="M865.037 452.709c.04 21.108.133 42.034-.068 62.958-.04 4.234.98 5.89 5.511 5.746 11.57-.367 9.48.74 9.572-9.528.1-11.287.06-22.575.26-34.178.314-.063.516.104.784.185.28.437.558.874.989 1.668-.26 2.442-.996 4.522-1.024 6.611-.139 10.33-.167 20.663-.066 30.993.035 3.507-1.027 4.852-4.848 5.014-11.968.506-12.45.006-12.295-12.118.242-18.976.142-37.957.199-56.936 0-.312.16-.623.246-.934.229.112.458.225.74.519M510.642 560.858c-.346.11-.375-.345-.374-.572.002-.228-.13-.333.222-.355.745-1.863 1.48-3.703 1.48-5.544.022-41.662-.042-83.324-.061-124.986-.001-1.816.278-3.633.427-5.45.27-.104.47-.286.69-.73.051 24.892.003 49.968-.02 75.044-.017 18.778.06 37.557-.09 56.333-.017 2.055-1.256 4.1-2.274 6.26m-245.85-139.72c.306-.141.223.255-.115.76-.474 1.652-.73 2.798-.73 3.944-.01 41.059.005 82.117-.098 123.308-.113.132-.298.427-.298.427-.32-4.242-.913-8.484-.91-12.725.01-22.604.21-45.208.261-67.812.033-14.624-.119-29.248-.046-43.87.007-1.3 1.061-2.595 1.936-4.032"/><path fill="#080c14" d="m880.002 453.944 25.525 30.564a1187 1187 0 0 0 9.035 10.715c.668.84.934 1.285.885 1.638-1.592-1.114-3.078-1.962-4.111-3.19a2603 2603 0 0 1-21.948-26.435c-3.552-4.338-6.936-8.813-10.396-13.227 0 0 .123-.15.377-.171s.633.106.633.106"/><path fill="#102336" d="M263.508 549.716a1.05 1.05 0 0 1 .532-.568c.639-.5.972-.865 1.306-1.23 8.463-8.725 16.896-17.48 25.419-26.146 1.362-1.386 3.123-2.38 4.967-3.352.224.376.18.549.136.721-10.137 10.692-20.273 21.383-30.77 32.322-.83.145-1.299.043-1.767-.06.045-.516.09-1.032.177-1.687"/><path fill="#5c6366" d="M480.756 467.77c.27.324.254.873-.05 2.164-.367 2.563-.502 4.383-.514 6.203-.15 22.244-.282 44.488-.42 66.733-3.004 1.713-6.01 3.427-9.391 5.161 8.015-3.576 8.536-10.984 8.526-18.569-.024-18.82-.169-37.64-.117-56.46.005-1.67 1.093-3.338 1.966-5.231"/><path fill="#102336" d="M402.956 397.672c6.815 3.68 13.558 7.5 20.487 10.95 2.067 1.029 4.654 1.016 7.358 1.478-.84 1.06-2.037 2.124-3.464 3.383-.613.627-.995 1.06-1.39 1.446a274 274 0 0 0-1.175-2.304l-.248 3.7c.031-6.83-6.517-7.488-10.28-10.61-3.28-2.723-7.364-4.475-11.29-6.987-.118-.569-.051-.81.002-1.056"/><path fill="#5c6366" d="M637.297 451.59c-.914-.313-1.758-1.453-2.607-1.458-19.918-.1-39.836-.077-60.384-.077 0 4.912 0 9.48.123 14.504-.317-4.034-.99-8.525-.993-13.016 0-.85 2.65-2.432 4.089-2.445 18.74-.159 37.483-.138 56.224.009 1.211.01 2.411 1.423 3.548 2.483m13.583-1.404c.282 23.64.32 47.442.293 71.764-.497-4.52-1.265-9.56-1.296-14.602-.112-17.908.016-35.816.102-53.724.005-1.093.428-2.184.9-3.438m359.355 64.848c-.246-.152-.198-.317-.17-.76-.02-.276-.057-.209.212-.274.442-.375.616-.685.754-.97-.035.027.017.096.017.096.311-2.715.842-5.427.89-8.147.127-7.088.043-14.179.043-21.59h-24.66c-.284 3.232-.555 6.312-1.05 9.783-1.852-11.24-1.852-11.22 9.89-11.197 4.143.009 8.32-.427 12.411.009 1.557.165 4.12 2.159 4.17 3.402.352 8.769.253 17.561.053 26.34-.026 1.115-1.476 2.198-2.56 3.308m-714.035 3.876c-.287.059-.243-.114-.122-.543.077-.256.06-.322.223-.439.407-.335.53-.609.595-1.4.094-24.2.115-47.935.178-71.67.006-1.969.305-3.937.468-5.906 0 0 .254.121.391.154.116 24.361.133 48.689.01 73.015-.01 2.189-.92 4.373-1.743 6.79m635.894 3.15a6456 6456 0 0 1-.005-64.75c.014-2.838-.377-4.95-4.252-4.93.277-.894.94-1.6 2.236-2.985 1.065 2.107 2.736 3.881 2.747 5.666.132 21.552.024 43.106-.052 64.66-.002.637-.342 1.272-.674 2.34m-295.406-.356c-.014-3.748.226-7.806.49-12.25-12.136 0-23.405 0-35.095-.114 1.822-.525 4.058-1.251 6.306-1.291 8.6-.153 17.206.062 25.802-.174 3.405-.093 4.698 1.696 4.545 4.393-.174 3.065-1.16 6.085-2.048 9.436m387.147-68.606c.289 16.016.355 32.18.365 48.868-.468-6.524-1.175-13.57-1.22-20.619-.06-9.365.397-18.734.855-28.25m-108.072 43.852a49 49 0 0 1-.908-1.563c.279-7.61.711-14.985 1.047-22.366.309-6.767.514-13.539.959-20.675.24 14.317.285 29.001.18 44.24-.527.492-.903.428-1.278.364"/><path fill="#68abdd" d="M345.784 485.031a3 3 0 0 1-.578-.43c12.993-.247 26.089-.433 39.185-.48 1.368-.005 4.667-.613 1.805 2.98-.484-.105-.687-.436-1.442-1.186-13.358-.574-26.164-.73-38.97-.884"/><path fill="#5c6366" d="M1088.087 498.807c-.289-15.043-.373-30.467-.556-46.356.41.903 1.353 2.267 1.363 3.638.1 13.311.054 26.624.003 39.936-.003.8-.395 1.6-.81 2.782m-15.802-46.49c.088 12.132-.071 24.6-.278 37.068-.046 2.82-.258 5.636-.676 8.817-.3-12.86-.364-26.082-.292-39.304.012-2.084.64-4.164 1.246-6.581m-31.345 19.721c-.502-2.145-1.254-4.78-1.429-7.45-.245-3.746-.062-7.52-.062-11.96-4.88 0-9.145 0-13.863-.079 3.817-.158 8.118-.545 12.336-.113 1.145.118 2.792 2.652 2.904 4.174.366 4.95.128 9.945.114 15.428"/><path fill="#192e45" d="M427.436 377.886c-4.213-2.304-8.683-4.795-13.278-7.599 4.257 2.263 8.64 4.837 13.278 7.599"/><path fill="#315f8a" d="M366.212 508.874c-.13-5.068 3.968-6.835 7.714-8.909-2.38 3.04-4.959 5.925-7.714 8.909m-64.095 21.019c-.397.02-.794.04-1.476.133 2.102-2.48 4.488-5.033 7.138-7.794.264-.208.276-.199.204.144a103 103 0 0 1-5.282 7.359c-.193.057-.584.158-.584.158"/><path fill="#407eb2" d="M460.991 464.445c.814-2.05 1.818-4.249 2.915-6.74.924-.97 1.754-1.65 3.062-2.365a2.6 2.6 0 0 1 .938.134c-2.241 2.941-4.482 5.882-6.915 8.971"/><path fill="#68abdd" d="M468.182 455.215c-.276.259-.738.09-.945-.042a60 60 0 0 1 5.538-7.176c-1.32 2.396-2.818 4.677-4.593 7.218"/><path fill="#14273c" d="M329.748 567.773c1.867-2.172 3.733-4.344 5.9-6.676.3-.159.376-.08.276.242a110 110 0 0 1-5.957 6.636z"/><path fill="#5c6366" d="M667.097 449.902c-4.781.2-9.982.243-15.65.22a344 344 0 0 1 15.65-.22m212.755 3.763c.15.279-.229.152-.421.097-3.898-.417-7.604-.78-11.742-1.22 3.715.23 7.864.537 12.163 1.123"/><path fill="#080c14" d="M1221.21 505.772c1.467 1.883 2.866 3.84 4.525 6.027.26.23.273.2.051-.056-1.74-2.087-3.259-3.918-4.777-5.75z"/><path fill="#192e45" d="M402.763 397.464c.14.454.073.695-.07 1.106-1.43-.608-2.796-1.39-4.432-2.369 1.256.22 2.782.638 4.502 1.263"/><path fill="#1d3853" d="M385.347 556.915c.86-1.156 2.027-2.397 3.292-3.475-.93 1.239-1.957 2.314-3.292 3.475"/><path fill="#192e45" d="M432.208 381.167c-.753-.245-1.411-.638-2.094-1.074.713.28 1.45.603 2.094 1.074"/><path fill="#14273c" d="M368.994 572.99c.456.01.913.018 1.71.046-.017.862-.376 1.706-1.04 2.92-.43.505-.534.655-.616.82 0 0-.117.109-.37.168s-.629.087-.61-.261c.32-1.464.623-2.578.926-3.693"/><path fill="#5c6366" d="M921.152 452.124c-.984.197-2.28.215-3.875.097.988-.183 2.275-.23 3.875-.097M263.22 551.629c.58-.123 1.048-.02 1.877.158-.383.475-1.125.874-1.868 1.272a6 6 0 0 1-.009-1.43"/><path fill="#1d3853" d="M335.696 540.581c-.355-.063-.45-.29-.452-.905.681-.805 1.272-1.223 1.863-1.642-.01.373-.021.746-.108 1.385-.4.512-.724.756-1.303 1.162"/><path fill="#315f8a" d="M424.06 511.056c-.49-.141-.886-.36-1.283-.578.462-.251.924-.503 1.56-.638.055.457-.065.798-.278 1.216m-112.029 6.976c.448-.588.895-1.176 1.597-1.874.253-.11.5.125.42.444-.723.695-1.367 1.07-2.015 1.44-.005-.005-.002-.01-.002-.01"/><path fill="#1d3853" d="m368.05 577.031.562-.041c-.219.853-.624 1.718-1.141 2.932-.112.347-.184.355-.326-.007-.19-.602-.238-.842-.244-1.279.043-.196.102-.593.12-.603.02-.01.02-.054.21-.18.42-.331.613-.565.78-.829z"/><path fill="#14273c" d="M371.351 573.018c.19-.296.699-.62 1.304-.82-.264.346-.625.57-1.304.82"/><path fill="#080c14" d="M635.793 464.098c.012.006.083-.032.072-.015s-.084.009-.072.015"/><path fill="#5c6366" d="M608.876 465.012c.304-.433.726-.437 1.33.326.226 1.549.272 2.332.318 3.116 0 0 .051.116-.002.147-.545-1.032-1.036-2.096-1.646-3.589"/><path fill="#315f8a" d="M377.126 497.287c-.033-.006-.221-.284-.221-.284s.265-.057.326.013c.06.07-.073.277-.105.271"/><path fill="#8dc9ee" d="M432.773 450.157c.068.35-.115.85-.436 1.576-.03-.325.077-.877.436-1.576"/><path fill="#5c6366" d="M298.391 438.962c.185-.232.63-.556 1.345-.954-.181.238-.633.55-1.345.954"/><path fill="#315f8a" d="M381.335 492.337c-.036-.21.117-.49.433-.853.056.215-.08.505-.433.853"/><path fill="#14273c" d="M328.883 568.872c.075-.346.259-.598.678-.957.187-.142.333-.007.255.238-.288.477-.513.692-.754.89z"/><path fill="#315f8a" d="M380.759 493.645c-.023.005.043-.047.05-.065.007-.02-.028.06-.05.065"/><path fill="#1d3853" d="M369.144 576.68c-.014-.07.09-.219.316-.437 0 .063-.106.205-.316.437"/><path fill="#14273c" d="M335.911 560.898c.083-.34.265-.597.755-.895.246-.085.347.019.194.196a7 7 0 0 1-.836.818z"/><path fill="#14273c" d="M337.076 559.294c.379-.052.625.107.69.503-.353.203-.553.214-.753.225 0 0-.101-.104-.153-.155s.112-.407.216-.573"/><path fill="#315f8a" d="M379.68 494.738c-.022.003.045-.042.052-.06.008-.019-.03.056-.052.06m-.994 1.006c-.022.008.065-.037.07-.061.004-.024-.047.053-.07.061"/><path fill="#5c6366" d="M469.849 548.178c.01.13-.179.431-.612.864-.026-.142.193-.417.612-.864"/><path fill="#8dc9ee" d="M433.791 449.117c-.033.082-.267.293-.628.712-.057-.145.128-.41.628-.712"/><path fill="#315f8a" d="M308.042 522.029c.228-.208.449-.428.816-.838.154-.18.164-.168.02.016-.348.422-.575.635-.823.826 0 0-.012-.009-.013-.004"/><path fill="#315f8a" d="M309.013 521.015c.239-.204.467-.424.858-.81.172-.154.198-.114.04.06-.382.392-.626.587-.889.758 0 0-.01-.012-.01-.008m1.019-.985c.137-.317.345-.565.829-.873.217-.11.238-.08.133.148-.378.415-.651.6-.924.786zm1.039-1c.212-.228.43-.444.803-.83.157-.168.154-.163.02.03-.33.436-.55.653-.795.846 0 0-.021-.03-.029-.045m64.63-20.265c-.025.008.072-.04.076-.066s-.052.058-.076.066m43.491 16.078c-.111-.194.062-.455.546-.751.074.179-.117.42-.545.751m1.056-.934c-.112-.325.134-.455.611-.267-.037.142-.198.19-.611.267"/><path fill="#080c14" d="M265.284 547.458c-.272.825-.605 1.19-1.13 1.558-.202-41.057-.216-82.115-.207-123.174 0-1.146.256-2.292.71-3.742.354 39.104.388 78.51.432 117.918.002 2.326.087 4.653.195 7.44m31.994-108.161c.1 1.624-.2 3.592-.205 5.562-.063 23.734-.084 47.469-.417 71.759-.457.629-.611.702-.766.775.035-23.827.045-47.655.15-71.482.009-2.091.635-4.18 1.238-6.614"/><path fill="#102336" d="M295.933 517.557c.112-.237.266-.31.66-.474.237.236.114.51-.327.847-.198.118-.29-.208-.333-.373"/><path fill="#192e45" d="M336.86 560.2c.353-.189.553-.2 1.053-.239 5.188 1.727 10.177 3.248 14.937 5.3 5.254 2.264 10.299 5.014 15.79 7.641.051 1.203-.252 2.317-.573 3.78-.018.35-.044.344-.231.485-.415.342-.618.566-.795.812 0 0 0 .043-.084.142-.182.299-.188.503-.099.711.049.24.098.48.252 1.075-.633 1.564-1.29 3.752-2.122 3.82-4.372.36-8.39.253-12.706-2.413-4.357-2.691-10.147-3.304-15.416-4.192-3.585-.604-7.354-.116-12.444-.116 2.123-3.506 3.274-5.408 4.533-7.636.348-.525.573-.74.934-1.15 2.079-2.304 4.007-4.431 6.035-6.88.343-.52.571-.733.936-1.14"/><path fill="#080c14" d="M512.12 424.317c.067 1.451-.212 3.268-.211 5.084.019 41.662.083 83.324.062 124.986-.001 1.84-.736 3.68-1.54 5.604-.092-3.192.474-6.465.502-9.743.096-11.114.002-22.23-.054-33.816.084-28.609.187-56.746.351-84.884.013-2.29.44-4.577.89-7.231m-32.102 118.417c-.108-22.109.024-44.353.174-66.597.012-1.82.147-3.64.462-5.793.281 16.346.325 33.025.39 50.171-.248 7.672-.515 14.878-1.026 22.219"/><path fill="#102336" d="M431.272 410.034c.245-.214.811-.472 1.664-.855-.257.187-.8.499-1.664.855"/><path fill="#254b70" d="M310.993 519.305c.35-.422.57-.64.905-1.07.782-.563 1.426-.938 2.266-1.51 6.781 6.036 13.922 11.283 22.873 13.766 2.95.818 3.793 3.04 1.064 6.09-.662.741-.86 1.078-1.057 1.414 0 0 .053-.012.058.013-.586.445-1.177.863-1.926 1.496-2.926 2.645-5.693 5.078-9.016 7.316-1.53-1.09-2.428-2.09-3.49-2.864-6.571-4.788-13.18-9.525-19.775-14.279 1.672-2.32 3.344-4.639 5.088-7.301.32-.534.547-.747.895-1.169.407-.355.651-.55 1.034-.942.43-.36.703-.545 1.08-.96"/><path fill="#1d3853" d="M337.312 537.837c-.07-.178.127-.515.513-1.076.044.156-.101.537-.513 1.076m-34.611-8.102c6.79 4.696 13.398 9.433 19.969 14.22 1.062.775 1.96 1.775 3.154 2.953-3.245 7.81-9.534 12.82-14.788 18.277-3.464-4.385-6.096-8.616-9.609-11.907-3.421-3.206-7.744-5.451-12.38-8.6 4.427-4.929 8.58-9.553 12.902-14.48.168-.305.559-.406.752-.463"/><path fill="#102336" d="M1010.079 514.017c-1.666.662-3.439 1.16-5.053 1.973-12.02 6.056-24.697 6.735-37.49 3.805-14.537-3.33-23.282-12.823-25.034-27.64-1.659-14.039 2.506-26.274 15.033-34.114 14.79-9.257 30.414-8.26 46.008-2.125 5.414 2.13 3.084 6.856 3.037 11.273-1.452-.264-2.613-.238-3.55-.683-7.869-3.733-16.146-4.94-24.795-4.592-11.674.47-20.706 8.24-22.857 20-2.224 12.154 3.53 23.692 13.968 28.154 7.898 3.376 15.803 3.678 23.754.257 5.056-2.175 7.958-9.696 5.054-14.228-.933-1.455-3.466-2.174-5.407-2.621-2.66-.612-4.784-1.164-4.662-4.598.125-3.535 2.293-3.955 5.06-3.921 3.998.049 8.007.184 11.993-.037 4.263-.236 6.028 1.35 5.874 5.767-.25 7.154-.056 14.325-.007 21.964.042.475-.01.406-.178.528-.386.377-.603.632-.82.886 0 0 .038-.067.072-.048"/><path fill="#315f8a" d="M346.135 485.29c12.455-.104 25.261.05 38.378.46-10.497.27-21.305.31-32.113.276-1.972-.006-3.942-.311-6.265-.737"/><path fill="#102336" d="M1037.968 489.904c.82 5.192.743 10.309 2.665 14.512 3.057 6.687 12.285 9.388 20.581 7.191 7.087-1.876 12.527-8.23 12.658-15.538.213-11.816.205-23.64.025-35.457-.067-4.415.872-6.767 6.011-6.739 4.895.027 6.325 1.88 6.224 6.53-.239 10.983-.042 21.974-.085 32.961-.064 16.569-7.125 25.269-23.642 27.03-7.416.791-15.428.211-22.583-1.815-8.925-2.528-13.62-9.814-13.783-19.336a1953 1953 0 0 1-.274-41.936c.004-1.083 1.57-2.884 2.672-3.119 7.666-1.632 9.531-.017 9.538 7.762.008 9.156-.004 18.312-.007 27.954M739.415 479.55c2.957 6.93 5.637 13.567 8.657 20.046.852 1.828 2.699 3.192 4.09 4.768 1.464-1.6 3.487-2.957 4.3-4.838 4.952-11.447 9.628-23.012 14.397-34.538.509-1.23.995-2.47 1.547-3.68 3.682-8.063 5.037-8.684 14.949-6.421-.51 1.824-.808 3.714-1.549 5.41-8.047 18.443-16.23 36.826-24.2 55.302-1.41 3.27-3.41 4.401-6.848 4.437-10.028.104-9.994.201-14.067-8.93-5.555-12.454-11.129-24.9-16.778-37.312-1.914-4.203-4.5-8.152-5.949-12.493-.665-1.995-.134-5.833 1.257-6.783 3.396-2.32 9.746-.255 11.13 2.985 3.07 7.19 5.955 14.459 9.064 22.047"/><path fill="#47704c" d="M610.817 468.548c-.339-.878-.385-1.661-.343-3.038 1.158-.025 2.228.542 3.298 1.11-.888.673-1.775 1.347-2.955 1.928"/><path fill="#102336" d="M1220.72 505.826c1.807 1.999 3.326 3.83 5.075 5.902 1.394 2.49 2.558 4.74 3.764 7.07-8.779 2.804-13.642 1.638-18.574-4.482-3.442-4.272-6.67-8.73-9.808-13.233-2.744-3.939-6.848-3.878-10.255-2.519-1.64.655-2.374 4.453-2.829 6.953-.47 2.579-.08 5.31-.104 7.974-.053 5.845-4.786 8.808-9.938 6.005-1.015-.553-1.874-2.393-1.882-3.646-.118-19.315-.162-38.632.092-57.944.017-1.301 2.518-3.634 3.924-3.68 9.146-.304 18.338-.559 27.458.04 11.16.732 17.525 6.265 19.804 15.884 2.15 9.079-1.695 17.537-10.6 23.177-2.873 1.82-4.13 3.893-1.459 6.84 1.67 1.841 3.36 3.662 5.331 5.66m-9.38-21.132c.257-.216.468-.47.658-.702 0 0-.062 0 .339-.516a20 20 0 0 0 .616-2.179s.112-.305.71-.615c2.712-3.155 2.115-6.403.33-9.676 0 0-.033.05-.168-.519-.298-.496-.596-.991-.829-1.488 0 0-.011.065-.315-.33-.222-.25-.47-.47-.679-.67 0 0-.009.062-.31-.336a6 6 0 0 0-.692-.652s-.015.06-.398-.5a102 102 0 0 1-3.603-1.512s.01.06-.483-.454c-1.586-.479-3.172-.957-5.445-1.023-3.987.194-7.974.39-12.368 1.282-.2 7.105-.514 14.21-.479 21.313.006 1.113 1.496 3.061 2.485 3.19 6.72.869 13.522 1.533 19.286-3.325 0 0-.06-.008.346-.295.255-.216.47-.467.658-.69 0 0-.06-.011.342-.303m-57.556 35.031c-2.312-3.492-4.635-6.733-6.032-10.333-1.493-3.847-3.732-5.542-7.823-5.447-6.988.163-13.984.15-20.973.03-3.45-.058-5.782 1.048-6.672 4.587-.322 1.282-.91 2.5-1.403 3.737-3.349 8.425-4.948 9.196-14.968 6.822.702-2.02 1.26-4.048 2.093-5.955 7.992-18.3 16.138-36.533 23.974-54.898 1.722-4.037 4.451-4.786 8.254-4.788 3.675-.001 5.968.901 7.592 4.768 7.86 18.714 16.123 37.26 24.224 55.875.708 1.627 1.272 3.317 2.176 5.695-3.852 0-6.949 0-10.442-.093m-33.926-27.295c.042.525.084 1.05.616 2.13 4.977.221 9.956.605 14.931.57 1.664-.01 3.32-1.088 4.979-1.678-.851-1.78-1.702-3.558-2.526-6.003a23 23 0 0 1-.912-3.217 23579 23579 0 0 1-6.173-14.584c-.56.146-1.122.292-2.266.83-.445 1.55-.89 3.101-1.933 5.029-.473 1.536-.947 3.073-1.873 4.965-.218.521-.436 1.042-1.223 1.955-.811 2.201-1.622 4.402-2.823 7.131-.173.847-.346 1.694-.797 2.872M797.41 497.44c5.89-13.263 11.838-26.092 17.256-39.14 1.92-4.623 5.24-4.175 8.903-4.352 3.778-.183 6.177 1.029 7.74 4.723 7.903 18.694 16.016 37.299 24.033 55.945 1.944 4.52 1.483 4.854-3.389 5.412-5.592.641-8.413-1.511-10.21-6.852-3.123-9.29-3.435-9.188-13.018-9.183-5.326.003-10.656.15-15.976-.019-4.493-.144-7.261 1.777-8.562 6.02-.34 1.11-.838 2.172-1.273 3.253-2.913 7.253-5.72 8.42-14.599 5.479 2.996-7.011 5.97-13.975 9.096-21.286m30.516-19.072c-.665-1.123-1.33-2.246-1.933-3.37 0 0-.03.054-.01-.624-.7-1.404-1.402-2.807-2.702-4.286-.401-.01-.803-.02-1.784.334-.812 1.876-1.624 3.752-2.494 5.585 0 0 .072.01-.437.496-.839 2.516-1.678 5.032-2.564 7.507 0 0 .06-.016-.33.518-.215.845-.43 1.69-.667 2.473 0 0 .066-.01-.502.414-.49 1.55-.98 3.1-1.508 4.587 0 0 .064-.038-.247.556.827 1.072 1.602 3.019 2.49 3.071 4.747.283 9.542.351 14.282-.01 4.483-.341 5.176-2.604 2.472-6.617 0 0-.05.05-.076-.655-.662-1.449-1.325-2.898-1.923-4.342 0 0-.041.048-.07-.658-.666-1.446-1.331-2.892-1.93-4.338 0 0-.05.044-.067-.641"/><path fill="#47704c" d="M833.854 507.499c.669-.565 1.569-.706 2.469-.848-.33.69-.66 1.38-1.337 2.066-.531-.267-.716-.531-1.132-1.218"/><path fill="#102336" d="M1310.217 479.061c4.258 23.328-10.024 38.78-31.852 40.72-8.756.778-17.638.066-26.46.206-3.746.06-4.91-1.663-4.896-5.169.07-18.48.025-36.96-.007-55.441-.005-2.906.293-5.434 4.147-5.33 10.633.287 21.334-.11 31.885.966 14.225 1.45 23.214 9.847 27.183 24.048m-19.63-9.479c-.557-.162-1.114-.324-1.636-.988-.632-.557-1.265-1.115-2.454-2.036-.868-.136-1.736-.273-2.988-1.032-6.59-4.134-13.82-2.462-20.842-2.048-.962.057-2.546 2.36-2.563 3.64-.179 13.641-.202 27.287.076 40.924.027 1.297 2.32 3.567 3.669 3.65 7.637.469 15.309.422 22.802-3.83.453-.616.907-1.232 2.06-1.924a245 245 0 0 0 4.689-4.355c.19-.535.38-1.07 1.156-2 4.755-7.78 4.934-15.656.344-24.173a56 56 0 0 1-1.074-2.012c-.608-.468-1.216-.936-1.934-1.972-.275-.502-.55-1.004-1.304-1.844m-375.141 27.279c.69.154 1.066.218 1.624.192.684-3.562 1.6-7.032 1.607-10.504.018-9.303-.298-18.61-.596-27.91-.155-4.841 3.06-4.698 6.37-4.646 3.195.05 6.534-.432 6.513 4.51-.08 18.969-.055 37.938-.018 56.907.006 3.1-1.257 4.466-4.449 4.587-4.83.182-8.685-.427-12.123-4.84-8.37-10.744-17.418-20.967-26.31-31.298-1.815-2.108-4.145-3.77-6.603-5.802-.634-.246-.836-.413-1.02-.794-.615 1.327-1.665 2.78-1.673 4.239-.055 10.983-.03 21.97.242 32.95.114 4.558-1.979 5.623-6.077 5.6-4.102-.024-6.065-1.138-6.022-5.672.166-17.646.041-35.294.049-52.942.003-7.362.105-7.435 7.617-7.417 1.165.003 2.33.018 3.955.008 3.92 4.394 7.303 8.87 10.855 13.207a2603 2603 0 0 0 21.948 26.435c1.033 1.228 2.519 2.076 4.11 3.19"/><path fill="#47704c" d="M424.849 416.094c-.242-1.003-.16-2.236-.077-3.469.387.753.774 1.506 1.096 2.506-.275.409-.485.571-1.02.963"/><path fill="#080c14" d="M1010.276 514c-.052-.19.165-.444.586-.847.03.162-.144.472-.586.847"/><path fill="#14273c" d="M367.23 577.852c-.012-.12.19-.343.594-.686.02.122-.173.356-.593.686m-.33.784c-.132-.012-.126-.216.038-.505.064-.088.005.31-.038.505"/><path fill="#47704c" d="M1213.064 480.994s-.112.304-.336.72c-.413 1.036-.603 1.658-.793 2.279 0 0 .062 0-.23.01-.45.334-.61.659-.768.984 0 0 .06.01-.227.025-.451.33-.613.647-.776.963 0 0 .06.008-.35-.056-5.585.675-10.758 1.441-15.94 2.145-3.528.48-4.578-1.297-4.505-4.619.143-6.443-.004-12.892-.03-19.338 3.987-.195 7.974-.39 12.493-.49 2.156.545 3.78.993 5.405 1.442 0 0-.009-.059.161.231 1.386.788 2.6 1.285 3.816 1.783 0 0 .015-.061.021.225.334.445.66.605.987.764 0 0 .009-.062.021.225.332.45.651.614.971.778 0 0 .011-.065-.082.253.29.792.673 1.265 1.057 1.738 0 0 .034-.05-.072.377-.345 3.471-.584 6.516-.823 9.56"/><path fill="#080c14" d="M1188.905 464.456c.23 6.097.377 12.546.234 18.989-.073 3.322.977 5.099 4.506 4.62 5.181-.705 10.354-1.471 15.93-2.175-5.345 4.95-12.148 4.287-18.867 3.417-.99-.128-2.48-2.076-2.485-3.189-.035-7.103.28-14.208.682-21.662m24.458 16.382c-.06-2.89.18-5.934.494-9.41 1.92 2.852 2.517 6.1-.494 9.41m-6.602-16.036c-1.378-.192-3.003-.64-4.816-1.39 1.398.177 2.984.655 4.816 1.39m4.032 1.99q-1.535-.327-3.65-1.485c1.023.22 2.24.712 3.65 1.485m1.342 16.943c-.01-.363.18-.985.59-1.859.018.365-.185.983-.59 1.86m1.756-12.964c-.316-.19-.7-.662-1.022-1.453.359.178.657.673 1.022 1.453m-1.059-1.905c-.168.034-.487-.13-.85-.577.229-.09.476.13.85.577m-.99-1.004c-.177.04-.503-.12-.868-.564.246-.105.498.111.868.564m-1.705 17.969c-.04-.173.122-.49.567-.85.107.24-.109.49-.567.85m1.001-.992c-.042-.178.117-.503.556-.866.113.252-.098.505-.556.867m-73.308 3.275 2.554 5.337c-1.66.59-3.315 1.667-4.979 1.679-4.975.034-9.954-.35-15.168-.85-.238-.282-.248-.273.214-.177 6.401.097 12.341.097 18.893.097-.684-2.679-1.116-4.37-1.538-6.067zm-6.889-18.061c2.002 4.726 4.003 9.452 5.89 14.664-.115.486-.4.691-.549.374a1979 1979 0 0 1-5.358-15.017c.007-.007.017-.021.017-.021m-9.896 18.976c.81-2.2 1.622-4.402 2.77-6.759.336-.156.44-.075.37.276-.945 2.51-1.819 4.67-2.804 6.744zm4.108-8.914c.474-1.536.948-3.073 1.736-4.786.314-.177.347-.152.284.183a90 90 0 0 1-1.967 4.643zm2.035-4.975c.43-1.562.874-3.113 1.617-4.852.297-.188.312-.173.267.167-.642 1.801-1.239 3.261-1.836 4.722z"/><path fill="#080c14" d="M1129.096 470.095c.555-.154 1.116-.3 1.761-.243.084.203.074.217-.233.206a32 32 0 0 0-1.507.059s-.015-.015-.02-.022m7.761 15.008c.428.713.714 1.53.986 2.68-.014.333-.029.345-.247.124-.534-.98-.85-1.738-1.166-2.497zm-16.722 6.997c.173-.847.346-1.694.714-2.805.195-.264.419-.09.422.286-.366 1.097-.735 1.818-1.113 2.533zm3.963-10.024c.166-.561.384-1.082.828-1.78.226-.179.261-.153.218.141-.326.783-.608 1.271-.89 1.76z"/><path fill="#080c14" d="M1119.992 494.003c-.05-.522-.092-1.047.005-1.737.139-.166.153-.158.132.163-.06.74-.1 1.16-.14 1.58 0 0 .01-.009.003-.006"/><path fill="#47704c" d="M822.078 470.06c.401.009.803.018 1.567.398 1.016 1.779 1.667 3.186 2.319 4.594 0 0 .03-.054-.003.29.64 1.468 1.311 2.59 1.983 3.711 0 0 .05-.044-.043.317.622 1.8 1.337 3.242 2.052 4.683 0 0 .041-.048-.063.312.615 1.802 1.334 3.245 2.053 4.688 0 0 .05-.05-.06.34.092 1.668.294 2.946.579 4.75-5.939 0-11.569.081-17.191-.097-.758-.024-1.475-1.356-2.211-2.082 0 0-.064.038.208-.167.783-1.738 1.293-3.272 1.804-4.806 0 0-.066.01.204-.183.442-1.066.615-1.94.788-2.814 0 0-.06.016.268-.141 1.134-2.717 1.939-5.277 2.744-7.837 0 0-.072-.01.264-.134 1.137-2.024 1.938-3.924 2.738-5.823"/><path fill="#080c14" d="M812.904 492.261c.892.43 1.609 1.76 2.367 1.785 5.622.178 11.252.096 17.19.096-.284-1.803-.486-3.08-.613-4.741 2.849 3.614 2.156 5.877-2.327 6.218-4.74.361-9.535.293-14.283.01-.887-.052-1.662-1.999-2.334-3.368m5.917-16.001c-.55 2.316-1.355 4.876-2.465 7.613.533-2.338 1.372-4.854 2.465-7.614m2.967-6.019c-.51 1.718-1.31 3.618-2.419 5.663.505-1.73 1.317-3.605 2.42-5.663m4.185 4.473c-.662-1.069-1.313-2.476-2.03-4.217.638 1.07 1.34 2.474 2.03 4.217m5.956 13.987c-.706-1.09-1.425-2.533-2.072-4.338.734 1.087 1.397 2.536 2.072 4.338m-17.142-1.497c-.227 1.322-.737 2.856-1.501 4.626.237-1.313.727-2.863 1.501-4.626m15.15-3.503c-.7-1.088-1.415-2.53-2.07-4.33.725 1.085 1.39 2.53 2.07 4.33m-2.003-4.99q-.996-1.168-2.005-3.366c.667.778 1.332 1.9 2.005 3.367m-12.067 5.55c.023.607-.15 1.481-.581 2.579-.043-.622.171-1.467.581-2.579m470.269 23.889c-6.979 3.964-14.651 4.01-22.288 3.542-1.348-.083-3.642-2.353-3.669-3.65-.278-13.637-.255-27.283-.076-40.923.017-1.28 1.601-3.584 2.563-3.64 7.021-.415 14.252-2.087 21.02 2.375.18.328.153.362-.24.298-7.417-.577-14.442-1.088-21.774-1.26-.307 15.075-.307 29.81-.307 44.891 5.08 0 9.852 0 15-.026 3.283-.834 6.19-1.642 9.264-2.24.281.352.394.492.507.632m8.914-32.194c4.439 7.972 4.26 15.848-.84 23.783-.344.156-.446.072-.333-.295 3.234-7.86 3.98-15.4.704-23.136zm-2.033 26.058c-1.436 1.309-2.872 2.617-4.663 3.956-.355.031-.365.018-.17-.234 1.58-1.557 2.966-2.862 4.472-4.056zm-1.015-30.019c.607.468 1.215.936 1.764 1.848-.182.561-.306.678-.588.545a62 62 0 0 1-1.194-2.375zm-4.949-5.072c.632.557 1.265 1.115 1.871 1.93-.026.258-.043.276-.304.17-.88-.53-1.5-.955-1.98-1.56z"/><path fill="#080c14" d="M1288.006 506.007c-.448.623-.902 1.239-1.612 1.998-.37.004-.483-.136-.521-.64.755-.701 1.436-1.04 2.117-1.378zm-4.126-39.842c.881.12 1.75.257 2.896.575.278.182.003.542-.41.592-1.118-.338-1.822-.727-2.526-1.116zm7.186 3.755c.275.502.55 1.004.881 1.79.056.284.044.297-.201.18-.613-.505-.98-.894-1.18-1.456zm2.828 4.19c.459.317.733.808 1.082 1.572.075.273-.237.508-.54.408-.569-.55-.833-1.002-1.098-1.453zm.024 25.826c-.138.577-.328 1.112-.709 1.862-.19.215-.432-.008-.431-.363.329-.778.658-1.202.987-1.625z"/><path fill="#080c14" d="M1288.907 469.103a15 15 0 0 1 1.92.648c.24.168-.094.512-.452.499-.736-.383-1.115-.752-1.493-1.122z"/><path fill="#47704c" d="M1120.45 494.105c-.421-.516-.382-.936-.313-1.67.4-1.036.77-1.757 1.247-2.767.982-2.45 1.856-4.61 2.8-7.12.353-.84.635-1.328.979-2.097.69-1.721 1.318-3.161 2.01-4.937.66-1.796 1.257-3.256 1.899-5.057.445-.364.845-.387 1.544-.392 2.04 4.916 3.778 9.813 5.666 15.028.465 1.076.781 1.835 1.305 2.82.641 1.92 1.073 3.61 1.757 6.289-6.552 0-12.492 0-18.893-.097m168.169-25.082c.64.475 1.019.844 1.588 1.398.558.575.925.964 1.53 1.475.587.828.935 1.534 1.441 2.49.424.702.688 1.153 1.1 1.821 3.579 7.836 2.833 15.375-.401 23.236-.442.79-.771 1.214-1.22 1.88-1.507 1.55-2.892 2.855-4.473 4.412-.876.59-1.557.929-2.48 1.42-3.15.96-6.056 1.768-9.72 2.452-2.727-.29-4.695-.566-6.667-.6-7.14-.127-7.263-.2-7.281-7.225-.032-12.41-.04-24.82-.058-37.23 7.026.512 14.05 1.023 21.469 1.6 1.096.453 1.8.842 2.78 1.36.893.555 1.513.98 2.393 1.51"/><path fill="#5c6366" d="M1261.673 464.892c.324 12.07.332 24.48.364 36.89.018 7.025.14 7.098 7.281 7.224 1.972.035 3.94.311 6.29.627-4.39.15-9.163.15-14.242.15 0-15.082 0-29.816.307-44.89"/></svg>

